<svg id="visual" viewBox="0 0 900 600" width="900" height="600" xmlns="http://www.w3.org/2000/svg" xmlns:xlink="http://www.w3.org/1999/xlink" version="1.1"><rect x="0" y="0" width="900" height="600" fill="#efe8eb"></rect><g transform="translate(418.79265427554753 311.07687429425516)"><path d="M126.7 -160.4C174.3 -139.8 229.8 -116.3 251.7 -75.5C273.6 -34.7 261.9 23.3 232.2 63.4C202.6 103.5 155.1 125.8 113.4 137.7C71.7 149.7 35.9 151.4 -8.4 162.9C-52.7 174.5 -105.4 196.1 -143 182.8C-180.5 169.5 -203 121.4 -200.4 77.4C-197.8 33.4 -170.2 -6.5 -157.8 -53.2C-145.3 -99.9 -147.9 -153.5 -124.1 -181.8C-100.3 -210.1 -50.2 -213 -5.3 -205.8C39.6 -198.5 79.2 -180.9 126.7 -160.4" fill="#6600FF"></path></g></svg>